<svg width="40" height="36" viewBox="0 0 40 36" fill="none" xmlns="http://www.w3.org/2000/svg">
<path d="M19.5498 3.64941C20.0537 3.64941 20.5372 3.84974 20.8936 4.20605C21.2499 4.56237 21.4502 5.04589 21.4502 5.5498C21.4502 6.05372 21.2499 6.53724 20.8936 6.89355C20.5372 7.24987 20.0537 7.4502 19.5498 7.4502H9.0498C7.6972 7.4502 6.39979 7.98692 5.44336 8.94336C4.48692 9.89979 3.9502 11.1972 3.9502 12.5498L3.9502 31.6494H26.5498C27.9024 31.6494 29.1998 31.1127 30.1562 30.1562C31.1127 29.1998 31.6494 27.9024 31.6494 26.5498V19.5498C31.6494 19.0459 31.8497 18.5624 32.2061 18.2061C32.5624 17.8497 33.0459 17.6494 33.5498 17.6494C34.0537 17.6494 34.5372 17.8497 34.8936 18.2061C35.2499 18.5624 35.4502 19.0459 35.4502 19.5498V26.5498C35.4502 28.9102 34.5118 31.1737 32.8428 32.8428C31.1737 34.5118 28.9102 35.4502 26.5498 35.4502H2.0498C1.54589 35.4502 1.06237 35.2499 0.706055 34.8936C0.349736 34.5372 0.149415 34.0537 0.149414 33.5498L0.149414 12.5498C0.149414 10.1894 1.08776 7.92591 2.75684 6.25684C4.42591 4.58776 6.68938 3.64941 9.0498 3.64941L19.5498 3.64941ZM12.5498 15.8994C13.0537 15.8994 13.5372 16.0997 13.8936 16.4561C14.2499 16.8124 14.4502 17.2959 14.4502 17.7998V21.2998C14.4502 21.8037 14.2499 22.2872 13.8936 22.6436C13.5372 22.9999 13.0537 23.2002 12.5498 23.2002C12.0459 23.2002 11.5624 22.9999 11.2061 22.6436C10.8497 22.2872 10.6494 21.8037 10.6494 21.2998V17.7998C10.6494 17.2959 10.8497 16.8124 11.2061 16.4561C11.5624 16.0997 12.0459 15.8994 12.5498 15.8994ZM23.0498 15.8994C23.5537 15.8994 24.0372 16.0997 24.3936 16.4561C24.7499 16.8124 24.9502 17.2959 24.9502 17.7998V21.2998C24.9502 21.8037 24.7499 22.2872 24.3936 22.6436C24.0372 22.9999 23.5537 23.2002 23.0498 23.2002C22.5459 23.2002 22.0624 22.9999 21.7061 22.6436C21.3497 22.2872 21.1494 21.8037 21.1494 21.2998V17.7998C21.1494 17.2959 21.3497 16.8124 21.7061 16.4561C22.0624 16.0997 22.5459 15.8994 23.0498 15.8994ZM31.7998 0.149414C32.1961 0.149572 32.583 0.274231 32.9053 0.504883C33.2274 0.735519 33.4697 1.06158 33.5977 1.43652H33.5967L33.8242 2.09766H33.8252C34.3352 3.59191 35.508 4.76641 37.0039 5.27637L37.6641 5.50195C38.0386 5.63036 38.3636 5.87311 38.5938 6.19531C38.824 6.51758 38.9482 6.90375 38.9482 7.2998C38.9482 7.69586 38.824 8.08203 38.5938 8.4043C38.3636 8.7265 38.0386 8.96925 37.6641 9.09766V9.09668L37.002 9.32422V9.3252C35.5077 9.83524 34.3332 11.008 33.8232 12.5039L33.5977 13.1641C33.4693 13.5386 33.2265 13.8636 32.9043 14.0938C32.582 14.324 32.1959 14.4482 31.7998 14.4482C31.4037 14.4482 31.0176 14.324 30.6953 14.0938C30.3731 13.8636 30.1304 13.5386 30.002 13.1641V13.1631L29.7754 12.502H29.7744C29.5226 11.7645 29.1057 11.094 28.5547 10.543C28.0036 9.99194 27.3332 9.57499 26.5957 9.32324L25.9355 9.09766C25.561 8.96925 25.236 8.7265 25.0059 8.4043C24.7756 8.08203 24.6514 7.69586 24.6514 7.2998C24.6514 6.90375 24.7756 6.51758 25.0059 6.19531C25.236 5.87311 25.561 5.63036 25.9355 5.50195L26.5977 5.27539V5.27441C28.0919 4.76437 29.2664 3.59157 29.7764 2.0957L30.002 1.43555L30.0059 1.42578L30.1143 1.1709L30.1201 1.1582C30.282 0.853456 30.5245 0.598592 30.8203 0.420898C31.1161 0.243269 31.4547 0.149159 31.7998 0.149414ZM31.7998 6.125C31.4456 6.55257 31.0526 6.94556 30.625 7.2998C31.0539 7.6535 31.445 8.0437 31.7988 8.47168C32.1533 8.04444 32.5445 7.65435 32.9717 7.2998C32.5449 6.94569 32.1534 6.55221 31.7998 6.125Z" fill="#0D5FFF" stroke="#0D5FFF" stroke-width="0.3"></path>
</svg>