<svg width="54" height="54" viewBox="0 0 54 54" fill="none" xmlns="http://www.w3.org/2000/svg">
<path fill-rule="evenodd" clip-rule="evenodd" d="M27 49.5C39.4267 49.5 49.5 39.4267 49.5 27C49.5 14.5733 39.4267 4.5 27 4.5C14.5733 4.5 4.5 14.5733 4.5 27C4.5 39.4267 14.5733 49.5 27 49.5ZM28.6875 20.25C28.6875 19.8024 28.5097 19.3732 28.1932 19.0568C27.8768 18.7403 27.4476 18.5625 27 18.5625C26.5524 18.5625 26.1232 18.7403 25.8068 19.0568C25.4903 19.3732 25.3125 19.8024 25.3125 20.25V25.3125H20.25C19.8024 25.3125 19.3732 25.4903 19.0568 25.8068C18.7403 26.1232 18.5625 26.5524 18.5625 27C18.5625 27.4476 18.7403 27.8768 19.0568 28.1932C19.3732 28.5097 19.8024 28.6875 20.25 28.6875H25.3125V33.75C25.3125 34.1976 25.4903 34.6268 25.8068 34.9432C26.1232 35.2597 26.5524 35.4375 27 35.4375C27.4476 35.4375 27.8768 35.2597 28.1932 34.9432C28.5097 34.6268 28.6875 34.1976 28.6875 33.75V28.6875H33.75C34.1976 28.6875 34.6268 28.5097 34.9432 28.1932C35.2597 27.8768 35.4375 27.4476 35.4375 27C35.4375 26.5524 35.2597 26.1232 34.9432 25.8068C34.6268 25.4903 34.1976 25.3125 33.75 25.3125H28.6875V20.25Z" fill="#0D5FFF"></path>
</svg>