<svg width="32" height="32" viewBox="0 0 32 32" fill="none" xmlns="http://www.w3.org/2000/svg">
<path d="M0 10.2665C0 8.32162 0.766272 6.45636 2.13025 5.08109C3.49422 3.70582 5.34416 2.9332 7.27311 2.9332L16.0008 2.9332C16.0008 2.9332 17.4555 3.00654 17.4555 3.91016C17.4555 5.08349 16.0008 5.01016 16.0008 5.01016H11.637L7.27311 5.01016C6.11574 5.01016 4.45494 5.65166 3.63656 6.47682C2.81817 7.30198 2.18193 9.09959 2.18193 10.2665L2.18193 27.1332L21.8193 27.1853C22.9767 27.1853 24.6375 26.4917 25.4559 25.6665C26.2743 24.8414 26.9105 23.1668 26.9105 21.9999V16.1332C26.9105 16.1332 26.9105 14.6665 27.9288 14.6665C29.0925 14.6665 29.0925 16.1332 29.0925 16.1332V21.9999C29.0925 23.9448 28.3262 25.8101 26.9622 27.1853C25.5982 28.5606 23.7483 29.3332 21.8193 29.3332H1.45462C1.06883 29.3332 0.698844 29.1787 0.426049 28.9036C0.153254 28.6286 0 28.2555 0 27.8665L0 10.2665ZM8.72774 17.5999L8.72774 14.6665C8.72774 14.2776 8.88099 13.9045 9.15378 13.6294C9.42658 13.3544 9.79657 13.1999 10.1824 13.1999C10.5681 13.1999 10.9381 13.3544 11.2109 13.6294C11.4837 13.9045 11.637 14.2776 11.637 14.6665L11.637 17.5999C11.637 17.9889 11.4837 18.3619 11.2109 18.637C10.9381 18.912 10.5681 19.0665 10.1824 19.0665C9.79657 19.0665 9.42658 18.912 9.15378 18.637C8.88099 18.3619 8.72774 17.9889 8.72774 17.5999ZM17.4555 17.5999V14.6665C17.4555 14.2776 17.6087 13.9045 17.8815 13.6294C18.1543 13.3544 18.5243 13.1999 18.9101 13.1999C19.2959 13.1999 19.6659 13.3544 19.9387 13.6294C20.2115 13.9045 20.3647 14.2776 20.3647 14.6665V17.5999C20.3647 17.9889 20.2115 18.3619 19.9387 18.637C19.6659 18.912 19.2959 19.0665 18.9101 19.0665C18.5243 19.0665 18.1543 18.912 17.8815 18.637C17.6087 18.3619 17.4555 17.9889 17.4555 17.5999ZM26.1832 -0.000128209C26.4866 -6.14282e-06 26.7824 0.0957833 27.0292 0.27383C27.2759 0.451876 27.4613 0.703266 27.5593 0.992805L27.7484 1.54721C28.1848 2.83641 29.1885 3.84987 30.4685 4.28987L31.0169 4.47907C31.3038 4.57818 31.5527 4.76519 31.729 5.01396C31.9052 5.26272 32 5.56081 32 5.86654C32 6.17227 31.9052 6.47035 31.729 6.71912C31.5527 6.96789 31.3038 7.1549 31.0169 7.254L30.4671 7.44467C29.1885 7.88467 28.1833 8.89667 27.7469 10.1873L27.5593 10.7403C27.461 11.0295 27.2755 11.2805 27.0288 11.4582C26.7821 11.636 26.4864 11.7315 26.1832 11.7315C25.88 11.7315 25.5844 11.636 25.3376 11.4582C25.0909 11.2805 24.9054 11.0295 24.8071 10.7403L24.618 10.1859C24.4026 9.54954 24.0454 8.97146 23.5739 8.49602C23.1023 8.02057 22.529 7.66042 21.8979 7.44321L21.3495 7.254C21.0627 7.1549 20.8137 6.96789 20.6374 6.71912C20.4612 6.47035 20.3664 6.17227 20.3664 5.86654C20.3664 5.56081 20.4612 5.26272 20.6374 5.01396C20.8137 4.76519 21.0627 4.57818 21.3495 4.47907L21.8993 4.2884C23.178 3.8484 24.1831 2.83641 24.6195 1.54574L24.8071 0.992805L24.8973 0.778672C25.0213 0.543324 25.2065 0.346471 25.433 0.209258C25.6596 0.0720455 25.9189 -0.00034183 26.1832 -0.000128209ZM26.1832 4.68734C25.8391 5.12396 25.4467 5.51959 25.0137 5.86654C25.4491 6.21365 25.8389 6.60623 26.1832 7.04427C26.5284 6.6072 26.9178 6.21463 27.3513 5.86654C26.9187 5.5195 26.5269 5.12388 26.1832 4.68734Z" fill="#D8D8D8"></path>
</svg>