<svg width="24" height="24" viewBox="0 0 24 24" fill="none" xmlns="http://www.w3.org/2000/svg">
<path d="M16.3741 9.86301C16.5224 9.7095 16.6045 9.50386 16.6026 9.29041C16.6008 9.07695 16.5152 8.87276 16.3643 8.72181C16.2133 8.57087 16.0091 8.48526 15.7957 8.48343C15.5822 8.4816 15.3766 8.56368 15.2231 8.71201L10.3731 13.562L8.77805 11.967C8.62454 11.8187 8.4189 11.7366 8.20545 11.7384C7.99199 11.7403 7.78779 11.8259 7.63685 11.9768C7.48591 12.1278 7.4003 12.332 7.39847 12.5454C7.39663 12.7589 7.47872 12.9645 7.62705 13.118L9.79705 15.288C9.94966 15.4403 10.1565 15.5258 10.3721 15.5258C10.5877 15.5258 10.7944 15.4403 10.9471 15.288L16.3741 9.86301Z" fill="white"></path>
</svg>