<svg width="16" height="16" viewBox="0 0 16 16" fill="none" xmlns="http://www.w3.org/2000/svg">
<path d="M2.66699 3.16659C2.66699 2.68035 2.86015 2.21404 3.20396 1.87022C3.54778 1.52641 4.0141 1.33325 4.50033 1.33325H11.5003C11.7411 1.33325 11.9795 1.38067 12.2019 1.47281C12.4243 1.56494 12.6264 1.69998 12.7967 1.87022C12.9669 2.04046 13.102 2.24257 13.1941 2.465C13.2862 2.68743 13.3337 2.92583 13.3337 3.16659V6.66658H12.8337C12.655 6.66658 12.485 6.70658 12.3337 6.77858V3.16659C12.3337 2.70659 11.9603 2.33325 11.5003 2.33325H4.50033C4.04033 2.33325 3.66699 2.70659 3.66699 3.16659V6.77858C3.51076 6.70445 3.33992 6.66618 3.16699 6.66658H2.66699V3.16659ZM12.3337 11.1799C12.697 11.0266 13.0303 10.8593 13.3337 10.6853V12.8333C13.3337 13.074 13.2862 13.3124 13.1941 13.5348C13.102 13.7573 12.9669 13.9594 12.7967 14.1296C12.6264 14.2999 12.4243 14.4349 12.2019 14.527C11.9795 14.6192 11.7411 14.6666 11.5003 14.6666H4.50033C4.0141 14.6666 3.54778 14.4734 3.20396 14.1296C2.86015 13.7858 2.66699 13.3195 2.66699 12.8333V10.6853C2.97033 10.8586 3.30366 11.0266 3.66699 11.1793V12.8333C3.66699 13.2933 4.04033 13.6666 4.50033 13.6666H11.5003C11.9603 13.6666 12.3337 13.2933 12.3337 12.8333V11.1799ZM1.16699 7.33325C1.03438 7.33325 0.907207 7.38593 0.813439 7.4797C0.719671 7.57347 0.666992 7.70064 0.666992 7.83325V9.83325C0.666992 9.96586 0.719671 10.093 0.813439 10.1868C0.907207 10.2806 1.03438 10.3333 1.16699 10.3333C1.2996 10.3333 1.42678 10.2806 1.52055 10.1868C1.61431 10.093 1.66699 9.96586 1.66699 9.83325V9.14592C1.87899 9.33725 2.13033 9.54125 2.42433 9.74458C3.58633 10.5486 5.39299 11.3333 8.00033 11.3333C10.6077 11.3333 12.4143 10.5486 13.5763 9.74458C13.8697 9.54125 14.1217 9.33792 14.3337 9.14592V9.83325C14.3337 9.96586 14.3863 10.093 14.4801 10.1868C14.5739 10.2806 14.7011 10.3333 14.8337 10.3333C14.9663 10.3333 15.0934 10.2806 15.1872 10.1868C15.281 10.093 15.3337 9.96586 15.3337 9.83325V7.83325C15.3337 7.70064 15.281 7.57347 15.1872 7.4797C15.0934 7.38593 14.9663 7.33325 14.8337 7.33325H12.8337C12.7011 7.33325 12.5739 7.38593 12.4801 7.4797C12.3863 7.57347 12.3337 7.70064 12.3337 7.83325C12.3337 7.96586 12.3863 8.09304 12.4801 8.1868C12.5739 8.28057 12.7011 8.33325 12.8337 8.33325H13.7403C13.543 8.51725 13.3003 8.71992 13.007 8.92192C12.0037 9.61792 10.3937 10.3333 8.00033 10.3333C5.60699 10.3333 3.99766 9.61792 2.99366 8.92192C2.73566 8.7432 2.49061 8.54649 2.26033 8.33325H3.16699C3.2996 8.33325 3.42678 8.28057 3.52055 8.1868C3.61431 8.09304 3.66699 7.96586 3.66699 7.83325C3.66699 7.70064 3.61431 7.57347 3.52055 7.4797C3.42678 7.38593 3.2996 7.33325 3.16699 7.33325H1.16699ZM5.33366 4.49992C5.33366 4.36731 5.38634 4.24013 5.48011 4.14636C5.57387 4.0526 5.70105 3.99992 5.83366 3.99992H10.167C10.2996 3.99992 10.4268 4.0526 10.5205 4.14636C10.6143 4.24013 10.667 4.36731 10.667 4.49992C10.667 4.63253 10.6143 4.7597 10.5205 4.85347C10.4268 4.94724 10.2996 4.99992 10.167 4.99992H5.83366C5.70105 4.99992 5.57387 4.94724 5.48011 4.85347C5.38634 4.7597 5.33366 4.63253 5.33366 4.49992ZM5.83366 6.66658C5.70105 6.66658 5.57387 6.71926 5.48011 6.81303C5.38634 6.9068 5.33366 7.03398 5.33366 7.16658C5.33366 7.29919 5.38634 7.42637 5.48011 7.52014C5.57387 7.61391 5.70105 7.66658 5.83366 7.66658H8.83366C8.96627 7.66658 9.09344 7.61391 9.18721 7.52014C9.28098 7.42637 9.33366 7.29919 9.33366 7.16658C9.33366 7.03398 9.28098 6.9068 9.18721 6.81303C9.09344 6.71926 8.96627 6.66658 8.83366 6.66658H5.83366Z" fill="#939393"></path>
</svg>