<svg width="16" height="16" viewBox="0 0 16 16" fill="none" xmlns="http://www.w3.org/2000/svg">
<path fill-rule="evenodd" clip-rule="evenodd" d="M4.57301 0.833308H4.65767C4.89167 0.833308 5.04234 0.833308 5.18967 0.846642C5.79047 0.902829 6.36271 1.1295 6.83901 1.49997H11.0383C11.311 1.49997 11.4963 1.49998 11.659 1.52131C12.2271 1.59629 12.7522 1.86416 13.1464 2.28007C13.5406 2.69598 13.7799 3.23467 13.8243 3.80597C14.0117 3.8907 14.1848 4.00381 14.3377 4.14131C14.4043 4.20042 14.4668 4.26264 14.525 4.32798C14.8777 4.71997 15.0277 5.19664 15.0983 5.75731C15.1663 6.29864 15.1663 6.98264 15.1663 7.83131V9.37131C15.1663 10.596 15.1663 11.5666 15.0643 12.326C14.959 13.1073 14.7377 13.74 14.239 14.2393C13.7397 14.738 13.107 14.9593 12.3257 15.0646C11.5657 15.1666 10.5957 15.1666 9.37034 15.1666H6.62901C5.40367 15.1666 4.43301 15.1666 3.67367 15.0646C2.89234 14.9593 2.25967 14.738 1.76034 14.2393C1.26167 13.74 1.04034 13.1073 0.935008 12.326C0.833008 11.566 0.833008 10.596 0.833008 9.37064V4.57331C0.833008 4.04198 0.833008 3.70464 0.887674 3.41331C1.00557 2.78706 1.30966 2.21094 1.76021 1.76028C2.21076 1.30962 2.78679 1.00537 3.41301 0.887308C3.70501 0.832642 4.04234 0.832642 4.57301 0.832642M12.7643 3.55131C12.679 3.27831 12.5173 3.03543 12.2984 2.85128C12.0795 2.66713 11.8126 2.5494 11.529 2.51198C11.4397 2.50064 11.325 2.49931 10.9997 2.49931H7.87367C8.30234 2.92598 8.49701 3.10331 8.71767 3.22598C8.86345 3.30686 9.01656 3.37042 9.17701 3.41664C9.45234 3.49464 9.75434 3.49931 10.5517 3.49931H10.835C11.6097 3.49931 12.2477 3.49931 12.7643 3.55131ZM4.63301 1.83331C4.02167 1.83331 3.78567 1.83531 3.59767 1.87064C3.16956 1.95157 2.77579 2.15969 2.46776 2.46783C2.15974 2.77598 1.95177 3.16983 1.87101 3.59797C1.83501 3.78597 1.83301 4.02197 1.83301 4.63331V9.33331C1.83301 10.6046 1.83434 11.508 1.92634 12.1933C2.01634 12.8633 2.18567 13.25 2.46767 13.532C2.74967 13.814 3.13634 13.9833 3.80701 14.0733C4.49234 14.1653 5.39501 14.1666 6.66634 14.1666H9.33301C10.6043 14.1666 11.5077 14.1653 12.193 14.0733C12.863 13.9833 13.2497 13.814 13.5317 13.532C13.8137 13.25 13.983 12.8633 14.073 12.1926C14.165 11.508 14.1663 10.6046 14.1663 9.33331V7.86531C14.1663 6.97464 14.1657 6.35397 14.1063 5.88198C14.0483 5.42264 13.9423 5.17531 13.7817 4.99664C13.7466 4.95712 13.7092 4.91972 13.6697 4.88464C13.491 4.72398 13.243 4.61797 12.7843 4.55998C12.313 4.50064 11.6917 4.49997 10.801 4.49997H10.4783C9.77968 4.49997 9.32901 4.49997 8.90301 4.37864C8.66967 4.31197 8.44367 4.21864 8.23101 4.10064C7.84434 3.88464 7.52567 3.56664 7.03101 3.07197L6.97967 3.01998L6.61301 2.65331C6.50595 2.54138 6.39407 2.43417 6.27767 2.33197C5.94227 2.05386 5.53081 1.88333 5.09701 1.84264C4.94255 1.8328 4.78774 1.82969 4.63301 1.83331ZM8.16634 6.66664C8.16634 6.53403 8.21902 6.40686 8.31279 6.31309C8.40656 6.21932 8.53373 6.16664 8.66634 6.16664H11.9997C12.1323 6.16664 12.2595 6.21932 12.3532 6.31309C12.447 6.40686 12.4997 6.53403 12.4997 6.66664C12.4997 6.79925 12.447 6.92643 12.3532 7.0202C12.2595 7.11396 12.1323 7.16664 11.9997 7.16664H8.66634C8.53373 7.16664 8.40656 7.11396 8.31279 7.0202C8.21902 6.92643 8.16634 6.79925 8.16634 6.66664Z" fill="#A5BDFF"></path>
</svg>