<svg width="24" height="24" viewBox="0 0 24 24" fill="none" xmlns="http://www.w3.org/2000/svg">
<path fill-rule="evenodd" clip-rule="evenodd" d="M6.86 1.25002H6.987C7.338 1.25002 7.564 1.25002 7.785 1.27002C8.68619 1.3543 9.54455 1.69431 10.259 2.25002H16.558C16.967 2.25002 17.245 2.25002 17.489 2.28202C18.3411 2.3945 19.1288 2.7963 19.7201 3.42016C20.3113 4.04402 20.6704 4.85207 20.737 5.70902C21.018 5.83612 21.2777 6.00578 21.507 6.21202C21.607 6.30069 21.7007 6.39402 21.788 6.49202C22.317 7.08002 22.542 7.79502 22.648 8.63602C22.75 9.44802 22.75 10.474 22.75 11.747V14.057C22.75 15.894 22.75 17.35 22.597 18.489C22.439 19.661 22.107 20.61 21.359 21.359C20.61 22.107 19.661 22.439 18.489 22.597C17.349 22.75 15.894 22.75 14.056 22.75H9.944C8.106 22.75 6.65 22.75 5.511 22.597C4.339 22.439 3.39 22.107 2.641 21.359C1.893 20.61 1.561 19.661 1.403 18.489C1.25 17.349 1.25 15.894 1.25 14.056V6.86002C1.25 6.06302 1.25 5.55702 1.332 5.12002C1.50884 4.18065 1.96499 3.31648 2.6408 2.64048C3.31662 1.96448 4.18067 1.50811 5.12 1.33102C5.558 1.24902 6.064 1.24902 6.86 1.24902M19.147 5.32702C19.0189 4.91753 18.7764 4.5532 18.4481 4.27698C18.1198 4.00076 17.7194 3.82417 17.294 3.76802C17.16 3.75102 16.988 3.74902 16.5 3.74902H11.811C12.454 4.38902 12.746 4.65502 13.077 4.83902C13.2957 4.96036 13.5253 5.05569 13.766 5.12502C14.179 5.24202 14.632 5.24902 15.828 5.24902H16.253C17.415 5.24902 18.372 5.24902 19.147 5.32702ZM6.95 2.75002C6.033 2.75002 5.679 2.75302 5.397 2.80602C4.75483 2.92742 4.16417 3.2396 3.70213 3.70181C3.2401 4.16403 2.92815 4.7548 2.807 5.39702C2.753 5.67902 2.75 6.03302 2.75 6.95002V14C2.75 15.907 2.752 17.262 2.89 18.29C3.025 19.295 3.279 19.875 3.702 20.298C4.125 20.721 4.705 20.975 5.711 21.11C6.739 21.248 8.093 21.25 10 21.25H14C15.907 21.25 17.262 21.248 18.29 21.11C19.295 20.975 19.875 20.721 20.298 20.298C20.721 19.875 20.975 19.295 21.11 18.289C21.248 17.262 21.25 15.907 21.25 14V11.798C21.25 10.462 21.249 9.53102 21.16 8.82302C21.073 8.13402 20.914 7.76302 20.673 7.49502C20.6204 7.43574 20.5643 7.37964 20.505 7.32702C20.237 7.08602 19.865 6.92702 19.177 6.84002C18.47 6.75102 17.538 6.75002 16.202 6.75002H15.718C14.67 6.75002 13.994 6.75002 13.355 6.56802C13.005 6.46802 12.666 6.32802 12.347 6.15102C11.767 5.82702 11.289 5.35002 10.547 4.60802L10.47 4.53002L9.92 3.98002C9.75941 3.81213 9.59159 3.65131 9.417 3.49802C8.9139 3.08085 8.29671 2.82505 7.646 2.76402C7.41431 2.74926 7.18209 2.74459 6.95 2.75002Z" fill="white"></path>
<path d="M9.75 14H11.75M11.75 14H13.75M11.75 14V16M11.75 14V12" stroke="white" stroke-width="2" stroke-linecap="round"></path>
</svg>