<svg width="24" height="24" viewBox="0 0 24 24" fill="none" xmlns="http://www.w3.org/2000/svg">
<path d="M12 17C15.866 17 19 13.866 19 10C19 6.13401 15.866 3 12 3C8.13401 3 5 6.13401 5 10C5 13.866 8.13401 17 12 17Z" stroke="#A5BDFF" stroke-width="1.6"></path>
<path d="M4 16.562C4.9668 17.6442 6.15138 18.51 7.47611 19.1025C8.80084 19.6949 10.2358 20.0008 11.687 20C17.383 20 22 15.383 22 9.687C22 6.633 20.672 3.888 18.562 2" stroke="#A5BDFF" stroke-width="1.6" stroke-linecap="round"></path>
<path d="M7 4.553C7.585 5.105 8.79 6.616 8.931 8.237C9.062 9.752 10.027 10.983 11.5 11C12.066 11.006 12.639 10.582 12.637 9.995C12.637 9.813 12.607 9.628 12.563 9.457C12.4885 9.19472 12.5105 8.91445 12.625 8.667C13.082 7.689 13.982 7.426 14.695 6.895C15.011 6.659 15.299 6.411 15.427 6.211C15.777 5.658 16.129 4.553 15.953 4M19 11C18.78 11.62 18.625 13.25 16.145 13.276C16.145 13.276 13.95 13.276 13.291 14.517C12.764 15.51 13.071 16.587 13.291 17" stroke="#A5BDFF" stroke-width="1.6"></path>
<path d="M12 22V20M12 22H10M12 22H14" stroke="#A5BDFF" stroke-width="1.6" stroke-linecap="round"></path>
</svg>