<svg width="24" height="24" viewBox="0 0 24 24" fill="none" xmlns="http://www.w3.org/2000/svg">
<path d="M12.7921 15.8L14.2221 14.368C15.3607 13.2286 16.0004 11.6838 16.0004 10.073C16.0004 8.4622 15.3607 6.91734 14.2221 5.77798C13.6587 5.21416 12.9897 4.76689 12.2533 4.46174C11.517 4.15658 10.7277 3.99951 9.93062 3.99951C9.13353 3.99951 8.34426 4.15658 7.60791 4.46174C6.87155 4.76689 6.20254 5.21416 5.63912 5.77798L2.77812 8.64298C1.95082 9.47236 1.38092 10.5232 1.13704 11.669C0.893159 12.8148 0.985696 14.0066 1.40351 15.101C1.82132 16.1954 2.54659 17.1457 3.49199 17.8375C4.43738 18.5292 5.56259 18.9329 6.73212 19" stroke="#A5BDFF" stroke-width="1.6" stroke-linecap="round"></path>
<path d="M11.2082 8.2L9.77824 9.632C8.63961 10.7714 8 12.3162 8 13.927C8 15.5378 8.63961 17.0826 9.77824 18.222C10.3417 18.7858 11.0107 19.2331 11.747 19.5382C12.4834 19.8434 13.2727 20.0005 14.0697 20.0005C14.8668 20.0005 15.6561 19.8434 16.3924 19.5382C17.1288 19.2331 17.7978 18.7858 18.3612 18.222L21.2222 15.358C22.0499 14.5287 22.62 13.4777 22.8641 12.3318C23.1082 11.1859 23.0157 9.99379 22.5979 8.89919C22.18 7.80459 21.4546 6.85415 20.509 6.16234C19.5634 5.47054 18.438 5.06688 17.2682 5" stroke="#A5BDFF" stroke-width="1.6" stroke-linecap="round"></path>
</svg>