<svg width="32" height="32" viewBox="0 0 32 32" fill="none" xmlns="http://www.w3.org/2000/svg">
<path d="M11.9997 16C11.9997 16.3536 11.8592 16.6927 11.6091 16.9428C11.3591 17.1928 11.02 17.3333 10.6663 17.3333C10.3127 17.3333 9.97358 17.1928 9.72353 16.9428C9.47348 16.6927 9.33301 16.3536 9.33301 16C9.33301 15.6463 9.47348 15.3072 9.72353 15.0572C9.97358 14.8071 10.3127 14.6666 10.6663 14.6666C11.02 14.6666 11.3591 14.8071 11.6091 15.0572C11.8592 15.3072 11.9997 15.6463 11.9997 16ZM17.333 16C17.333 16.3536 17.1925 16.6927 16.9425 16.9428C16.6924 17.1928 16.3533 17.3333 15.9997 17.3333C15.6461 17.3333 15.3069 17.1928 15.0569 16.9428C14.8068 16.6927 14.6663 16.3536 14.6663 16C14.6663 15.6463 14.8068 15.3072 15.0569 15.0572C15.3069 14.8071 15.6461 14.6666 15.9997 14.6666C16.3533 14.6666 16.6924 14.8071 16.9425 15.0572C17.1925 15.3072 17.333 15.6463 17.333 16ZM21.333 17.3333C21.6866 17.3333 22.0258 17.1928 22.2758 16.9428C22.5259 16.6927 22.6663 16.3536 22.6663 16C22.6663 15.6463 22.5259 15.3072 22.2758 15.0572C22.0258 14.8071 21.6866 14.6666 21.333 14.6666C20.9794 14.6666 20.6402 14.8071 20.3902 15.0572C20.1402 15.3072 19.9997 15.6463 19.9997 16C19.9997 16.3536 20.1402 16.6927 20.3902 16.9428C20.6402 17.1928 20.9794 17.3333 21.333 17.3333Z" fill="#D8D8D8"></path>
<path fill-rule="evenodd" clip-rule="evenodd" d="M16.0003 1.66663C8.08433 1.66663 1.66699 8.08396 1.66699 16C1.66699 23.916 8.08433 30.3333 16.0003 30.3333C23.9163 30.3333 30.3337 23.916 30.3337 16C30.3337 8.08396 23.9163 1.66663 16.0003 1.66663ZM3.66699 16C3.66699 12.729 4.96639 9.59192 7.27934 7.27898C9.59229 4.96603 12.7293 3.66663 16.0003 3.66663C19.2713 3.66663 22.4084 4.96603 24.7213 7.27898C27.0343 9.59192 28.3337 12.729 28.3337 16C28.3337 19.271 27.0343 22.408 24.7213 24.7209C22.4084 27.0339 19.2713 28.3333 16.0003 28.3333C12.7293 28.3333 9.59229 27.0339 7.27934 24.7209C4.96639 22.408 3.66699 19.271 3.66699 16Z" fill="#D8D8D8"></path>
</svg>