<svg width="40" height="40" viewBox="0 0 40 40" fill="none" xmlns="http://www.w3.org/2000/svg">
<path fill-rule="evenodd" clip-rule="evenodd" d="M8.75 13.3334C8.75 10.3497 9.93526 7.48821 12.045 5.37842C14.1548 3.26864 17.0163 2.08337 20 2.08337C22.9837 2.08337 25.8452 3.26864 27.955 5.37842C30.0647 7.48821 31.25 10.3497 31.25 13.3334V21.6667C31.25 24.6504 30.0647 27.5119 27.955 29.6217C25.8452 31.7314 22.9837 32.9167 20 32.9167C17.0163 32.9167 14.1548 31.7314 12.045 29.6217C9.93526 27.5119 8.75 24.6504 8.75 21.6667V13.3334ZM20 4.58337C17.6794 4.58337 15.4538 5.50525 13.8128 7.14619C12.1719 8.78713 11.25 11.0127 11.25 13.3334V21.6667C11.25 23.9874 12.1719 26.2129 13.8128 27.8539C15.4538 29.4948 17.6794 30.4167 20 30.4167C22.3206 30.4167 24.5462 29.4948 26.1872 27.8539C27.8281 26.2129 28.75 23.9874 28.75 21.6667V13.3334C28.75 8.50004 24.8333 4.58337 20 4.58337ZM17.525 11.7417C17.288 11.9625 16.9746 12.0827 16.6508 12.077C16.327 12.0713 16.018 11.9401 15.789 11.7111C15.5599 11.4821 15.4288 11.1731 15.423 10.8492C15.4173 10.5254 15.5375 10.212 15.7583 9.97504L16.6483 10.815C16.3494 10.5374 16.0533 10.2569 15.76 9.97337V9.97171L15.7633 9.96837L15.77 9.96337L15.7833 9.95004L15.89 9.85004C15.95 9.79782 16.0272 9.73893 16.1217 9.67337C16.31 9.54337 16.5683 9.39504 16.91 9.25671C17.5933 8.98171 18.59 8.75004 20 8.75004C21.41 8.75004 22.4067 8.98171 23.09 9.25837C23.4317 9.39671 23.69 9.54171 23.8783 9.67337C23.997 9.7581 24.1101 9.85052 24.2167 9.95004L24.23 9.96337L24.2367 9.96837L24.2383 9.97171C24.2383 9.97337 24.2417 9.97504 23.3517 10.815L24.2417 9.97504C24.4748 10.2111 24.6047 10.5301 24.6027 10.8619C24.6006 11.1937 24.4669 11.511 24.2308 11.7442C23.9948 11.9774 23.6758 12.1072 23.344 12.1052C23.0122 12.1032 22.6948 11.9694 22.4617 11.7334C22.3641 11.6699 22.2602 11.6169 22.1517 11.575C21.8067 11.435 21.135 11.25 20 11.25C18.865 11.25 18.1933 11.435 17.8483 11.575C17.7348 11.6186 17.6264 11.6745 17.525 11.7417ZM17.525 16.7434C17.2891 16.971 16.9733 17.0968 16.6456 17.0938C16.3178 17.0908 16.0044 16.9592 15.7727 16.7273C15.5411 16.4955 15.4098 16.1819 15.4071 15.8541C15.4044 15.5264 15.5305 15.2107 15.7583 14.975L16.6667 15.8334C16.3621 15.5492 16.0599 15.2625 15.76 14.9734V14.9717L15.7633 14.9684L15.77 14.9634L15.7833 14.95L15.89 14.85C15.95 14.7978 16.0272 14.7389 16.1217 14.6734C16.31 14.5434 16.5683 14.395 16.91 14.2567C17.5933 13.9817 18.59 13.75 20 13.75C21.41 13.75 22.4067 13.9817 23.09 14.2584C23.4317 14.395 23.69 14.5417 23.8783 14.6734C23.997 14.7581 24.1101 14.8505 24.2167 14.95L24.23 14.9634L24.2367 14.9684L24.2383 14.9717C24.2383 14.9734 24.2417 14.975 23.3333 15.8334L24.2417 14.975C24.4625 15.212 24.5827 15.5254 24.577 15.8492C24.5712 16.1731 24.4401 16.4821 24.211 16.7111C23.982 16.9401 23.673 17.0713 23.3492 17.077C23.0254 17.0827 22.712 16.9625 22.475 16.7417L22.4617 16.7334C22.3641 16.6699 22.2602 16.6169 22.1517 16.575C21.8067 16.435 21.135 16.25 20 16.25C18.865 16.25 18.1933 16.435 17.8483 16.575C17.7398 16.6169 17.6359 16.6699 17.5383 16.7334L17.525 16.7434ZM5 17.0834C5.33152 17.0834 5.64946 17.2151 5.88388 17.4495C6.1183 17.6839 6.25 18.0019 6.25 18.3334V21.6667C6.25 25.3134 7.69866 28.8108 10.2773 31.3894C12.8559 33.9681 16.3533 35.4167 20 35.4167C23.6467 35.4167 27.1441 33.9681 29.7227 31.3894C32.3013 28.8108 33.75 25.3134 33.75 21.6667V18.3334C33.75 18.0019 33.8817 17.6839 34.1161 17.4495C34.3505 17.2151 34.6685 17.0834 35 17.0834C35.3315 17.0834 35.6495 17.2151 35.8839 17.4495C36.1183 17.6839 36.25 18.0019 36.25 18.3334V21.6667C36.25 30.6417 28.975 37.9167 20 37.9167C11.025 37.9167 3.75 30.6417 3.75 21.6667V18.3334C3.75 18.0019 3.8817 17.6839 4.11612 17.4495C4.35054 17.2151 4.66848 17.0834 5 17.0834Z" fill="#D8D8D8"></path>
</svg>