<svg width="26" height="26" viewBox="0 0 26 26" fill="none" xmlns="http://www.w3.org/2000/svg">
<path fill-rule="evenodd" clip-rule="evenodd" d="M11.9979 8.1333C10.5582 7.28397 8.9375 8.43989 8.9375 9.98039V16.0189C8.9375 17.5594 10.5582 18.7153 11.9979 17.866L17.1112 14.8467C18.4903 14.0321 18.4903 11.9672 17.1112 11.1526L11.9979 8.1333ZM10.5625 9.98039C10.5625 9.76589 10.6665 9.6153 10.79 9.53839C10.8461 9.5003 10.9121 9.47949 10.9799 9.47853C11.0476 9.47756 11.1142 9.49649 11.1713 9.53297L16.2847 12.5522C16.3596 12.5997 16.4208 12.666 16.4623 12.7445C16.5037 12.823 16.5239 12.9109 16.5208 12.9996C16.5239 13.0883 16.5037 13.1763 16.4623 13.2548C16.4208 13.3332 16.3596 13.3995 16.2847 13.4471L11.1713 16.4663C11.1141 16.503 11.0473 16.5221 10.9793 16.5211C10.9113 16.5201 10.8451 16.4992 10.7889 16.4609C10.7166 16.4127 10.6578 16.3467 10.6182 16.2694C10.5785 16.192 10.5594 16.1058 10.5625 16.0189V9.98039Z" fill="#A5BDFF"></path>
<path fill-rule="evenodd" clip-rule="evenodd" d="M13.0003 1.354C6.56858 1.354 1.35449 6.56809 1.35449 12.9998C1.35449 19.4316 6.56858 24.6457 13.0003 24.6457C19.4321 24.6457 24.6462 19.4316 24.6462 12.9998C24.6462 6.56809 19.4321 1.354 13.0003 1.354ZM2.97949 12.9998C2.97949 10.3421 4.03526 7.79331 5.91453 5.91404C7.7938 4.03477 10.3426 2.979 13.0003 2.979C15.658 2.979 18.2069 4.03477 20.0861 5.91404C21.9654 7.79331 23.0212 10.3421 23.0212 12.9998C23.0212 15.6575 21.9654 18.2064 20.0861 20.0856C18.2069 21.9649 15.658 23.0207 13.0003 23.0207C10.3426 23.0207 7.7938 21.9649 5.91453 20.0856C4.03526 18.2064 2.97949 15.6575 2.97949 12.9998Z" fill="#A5BDFF"></path>
</svg>