<svg width="24" height="24" viewBox="0 0 24 24" fill="none" xmlns="http://www.w3.org/2000/svg">
<path d="M12 22C7.286 22 4.929 22 3.464 20.535C2 19.072 2 16.714 2 12C2 7.286 2 4.929 3.464 3.464C4.93 2 7.286 2 12 2C16.714 2 19.071 2 20.535 3.464C21.776 4.705 21.965 6.587 21.995 10M18.75 21.9999V14.9999M18.75 14.9999L21.25 17.4999M18.75 14.9999L16.25 17.4999" stroke="#A5BDFF" stroke-width="1.6" stroke-linecap="round"></path>
<path d="M7.46967 7.46967C7.32902 7.61032 7.25 7.80109 7.25 8C7.25 8.19891 7.32902 8.38968 7.46967 8.53033C7.61032 8.67098 7.80109 8.75 8 8.75H16C16.1989 8.75 16.3897 8.67098 16.5303 8.53033C16.671 8.38968 16.75 8.19891 16.75 8C16.75 7.80109 16.671 7.61032 16.5303 7.46967C16.3897 7.32902 16.1989 7.25 16 7.25H8C7.80109 7.25 7.61032 7.32902 7.46967 7.46967Z" fill="#A5BDFF"></path>
<path d="M7.46967 11.4697C7.32902 11.6103 7.25 11.8011 7.25 12C7.25 12.1989 7.32902 12.3897 7.46967 12.5303C7.61032 12.671 7.80109 12.75 8 12.75H16C16.1989 12.75 16.3897 12.671 16.5303 12.5303C16.671 12.3897 16.75 12.1989 16.75 12C16.75 11.8011 16.671 11.6103 16.5303 11.4697C16.3897 11.329 16.1989 11.25 16 11.25H8C7.80109 11.25 7.61032 11.329 7.46967 11.4697Z" fill="#A5BDFF"></path>
<path d="M7.46967 15.4697C7.32902 15.6103 7.25 15.8011 7.25 16C7.25 16.1989 7.32902 16.3897 7.46967 16.5303C7.61032 16.671 7.80109 16.75 8 16.75H13C13.1989 16.75 13.3897 16.671 13.5303 16.5303C13.671 16.3897 13.75 16.1989 13.75 16C13.75 15.8011 13.671 15.6103 13.5303 15.4697C13.3897 15.329 13.1989 15.25 13 15.25H8C7.80109 15.25 7.61032 15.329 7.46967 15.4697Z" fill="#A5BDFF"></path>
</svg>